<svg width="21" height="20" viewBox="0 0 21 20" fill="none" xmlns="http://www.w3.org/2000/svg">
<path d="M13.0261 0L5.35526 10L13.054 20H7.99124L0.72485 10.3208C0.543539 10.0697 0.543539 9.72106 0.72485 9.48396L7.97729 0" fill="#4D63B5"/>
<path d="M10.3764 12.7049C10.5298 11.882 10.9622 11.101 11.6874 10.557C13.2077 9.39943 15.3973 9.69231 16.5549 11.2265C17.7125 12.7607 17.4197 14.9364 15.8855 16.094C15.1602 16.6379 14.2955 16.8611 13.4727 16.7774L15.8855 19.9434C16.6247 19.7063 17.336 19.3436 17.9915 18.8555C21.0459 16.5403 21.6456 12.1749 19.3304 9.12049C17.0152 6.06609 12.6498 5.46637 9.59539 7.79552C8.93988 8.29761 8.39595 8.88339 7.97754 9.5389L10.3904 12.7049H10.3764Z" fill="#4D63B5"/>
</svg>
