<svg width="28" height="20" viewBox="0 0 28 20" fill="none" xmlns="http://www.w3.org/2000/svg">
<g clip-path="url(#clip0_3401_16135)">
<mask id="mask0_3401_16135" style="mask-type:luminance" maskUnits="userSpaceOnUse" x="0" y="0" width="15" height="20">
<path d="M9.50298 0.46875H14.6511V11.9081C14.6511 14.0097 14.1008 15.721 12.9994 17.0428C12.3663 17.8046 11.561 18.4101 10.5832 18.8599C9.60613 19.3097 8.60341 19.5346 7.5757 19.5346C5.52925 19.5346 3.8038 18.8465 2.39998 17.4696C0.996172 16.0927 0.293945 14.4044 0.293945 12.4034C0.293945 10.4024 0.991046 8.79231 2.38653 7.37889C3.78137 5.96611 5.43314 5.25876 7.34184 5.25876C7.6449 5.25876 8.10365 5.28631 8.7181 5.34141V11.013C8.29587 10.6824 7.87363 10.5178 7.4514 10.5178C6.91897 10.5178 6.46213 10.7125 6.08155 11.1027C5.70032 11.4929 5.51003 11.9632 5.51003 12.5136C5.51003 13.064 5.70737 13.5029 6.10205 13.8835C6.49673 14.2647 6.96958 14.455 7.51996 14.455C8.84112 14.455 9.50234 13.542 9.50234 11.7159V0.46875H9.50298Z" fill="white"/>
</mask>
<g mask="url(#mask0_3401_16135)">
<mask id="mask1_3401_16135" style="mask-type:luminance" maskUnits="userSpaceOnUse" x="0" y="0" width="15" height="20">
<path d="M14.7312 0.390625H0.213867V19.616H14.7312V0.390625Z" fill="white"/>
</mask>
<g mask="url(#mask1_3401_16135)">
<mask id="mask2_3401_16135" style="mask-type:luminance" maskUnits="userSpaceOnUse" x="0" y="0" width="15" height="20">
<path d="M14.7312 0.390625H0.213867V19.616H14.7312V0.390625Z" fill="white"/>
</mask>
<g mask="url(#mask2_3401_16135)">
<rect x="0.211914" y="0.375" width="14.5469" height="19.2523" fill="#4D63B5"/>
</g>
</g>
</g>
<mask id="mask3_3401_16135" style="mask-type:luminance" maskUnits="userSpaceOnUse" x="14" y="0" width="14" height="20">
<path d="M27.1223 0.949741V6.11392C26.7186 5.9813 26.4066 5.91466 26.1862 5.91466C25.764 5.91466 25.4013 6.06523 25.0989 6.36573C24.7958 6.66686 24.6446 7.02951 24.6446 7.45431C24.6446 7.81759 24.8099 8.27763 25.1399 8.83505L25.5666 9.55202C26.3374 10.8443 26.7231 12.0918 26.7231 13.2957C26.7231 14.1959 26.5533 15.0257 26.2144 15.7849C26.0299 16.1982 25.6499 17.0305 24.7753 17.7699C24.1955 18.26 23.6599 18.4881 23.1524 18.7053C22.8987 18.8136 21.7409 19.2852 20.2077 19.3992C17.7069 19.5857 15.5843 18.7143 14.6514 18.2722C15.096 17.93 15.8111 17.2919 16.3845 16.2763C16.9432 15.2871 17.1258 14.3702 17.1931 13.8179C17.45 13.9794 18.0209 14.285 18.7667 14.2523C18.9986 14.2421 19.5413 14.2152 19.9847 13.8474C20.3102 13.5776 20.4736 13.2393 20.4736 12.8318C20.4736 12.5666 20.2122 11.9867 19.6887 11.0929C18.8532 9.67696 18.4361 8.26097 18.4361 6.84498C18.4361 5.13683 19.0672 3.66574 20.3288 2.43108C21.5903 1.19514 23.0979 0.578125 24.851 0.578125C25.6217 0.578125 26.3791 0.702424 27.1223 0.949741Z" fill="white"/>
</mask>
<g mask="url(#mask3_3401_16135)">
<mask id="mask4_3401_16135" style="mask-type:luminance" maskUnits="userSpaceOnUse" x="14" y="0" width="14" height="20">
<path d="M27.2024 0.5H14.5713V19.5063H27.2024V0.5Z" fill="white"/>
</mask>
<g mask="url(#mask4_3401_16135)">
<mask id="mask5_3401_16135" style="mask-type:luminance" maskUnits="userSpaceOnUse" x="14" y="0" width="14" height="20">
<path d="M27.2024 0.5H14.5713V19.5063H27.2024V0.5Z" fill="white"/>
</mask>
<g mask="url(#mask5_3401_16135)">
<rect x="14.542" y="0.484375" width="12.6708" height="19.037" fill="#4D63B5"/>
</g>
</g>
</g>
</g>
<defs>
<clipPath id="clip0_3401_16135">
<rect width="26.8281" height="19.0658" fill="white" transform="translate(0.293945 0.46875)"/>
</clipPath>
</defs>
</svg>
